<svg viewBox="0 0 128 128" xmlns="http://www.w3.org/2000/svg">
    <path d="M64 64C64 50.7452 75.7452 39 89 39C102.255 39 114 50.7452 114 64C114 77.2548 102.255 89 89 89C75.7452 89 64 77.2548 64 64Z" fill="#E57373"/>
    <path d="M64 39C77.2548 39 89 50.7452 89 64C89 77.2548 77.2548 89 64 89C50.7452 89 39 77.2548 39 64C39 50.7452 50.7452 39 64 39Z" fill="#81C784"/>
    <path d="M64 14C85.3753 14 103 31.6247 103 53C103 74.3753 85.3753 92 64 92C42.6247 92 25 74.3753 25 53C25 31.6247 42.6247 14 64 14Z" fill="#64B5F6"/>
    <path d="M64 89C77.2548 89 89 77.2548 89 64C89 50.7452 77.2548 39 64 39C50.7452 39 39 50.7452 39 64C39 77.2548 50.7452 89 64 89Z" fill="#FFF176"/>
    <style>
        @media (prefers-color-scheme: dark) {
            path:nth-of-type(1) { fill: #FFCDD2; }
            path:nth-of-type(2) { fill: #C8E6C9; }
            path:nth-of-type(3) { fill: #BBDEFB; }
            path:nth-of-type(4) { fill: #FFF9C4; }
        }
    </style>
</svg>